<?xml version="1.0" standalone="no"?>
<!DOCTYPE svg PUBLIC "-//W3C//DTD SVG 20010904//EN"
 "http://www.w3.org/TR/2001/REC-SVG-20010904/DTD/svg10.dtd">
<svg version="1.0" xmlns="http://www.w3.org/2000/svg"
 width="600.000000pt" height="600.000000pt" viewBox="0 0 600.000000 600.000000"
 preserveAspectRatio="xMidYMid meet">
<metadata>
Created by potrace 1.11, written by Peter Selinger 2001-2013
</metadata>
<g transform="translate(0.000000,600.000000) scale(0.100000,-0.100000)"
fill="#000000" stroke="none">
<path d="M1160 5110 l0 -130 172 -2 172 -3 680 -1712 681 -1713 142 0 142 0
291 732 c161 403 465 1170 677 1703 212 534 390 976 396 983 7 9 54 12 173 12
l164 0 0 130 0 130 -520 0 -520 0 0 -130 0 -130 186 0 186 0 -4 -22 c-5 -20
-916 -2339 -922 -2345 -1 -1 -242 589 -536 1312 l-534 1315 -513 0 -513 0 0
-130z m853 -142 c2 -7 252 -619 556 -1359 l551 -1346 -62 -154 c-33 -85 -64
-157 -67 -161 -7 -8 -1210 3013 -1204 3025 7 13 220 8 226 -5z"/>
<path d="M1500 885 l0 -135 1505 0 1505 0 0 135 0 135 -1505 0 -1505 0 0 -135z"/>
</g>
</svg>
